<?xml version="1.0" encoding="UTF-8"?>
<svg id="Layer_2" data-name="Layer 2" xmlns="http://www.w3.org/2000/svg" viewBox="0 0 322.69 283.69">
  <defs>
    <style>
      .cls-1 {
        fill: #374150;
      }

      .cls-2 {
        fill: #2878c8;
      }
    </style>
  </defs>
  <g id="Layer_1-2" data-name="Layer 1">
    <g>
      <rect class="cls-2" x="27.52" y="167.57" width="65.17" height="26.27"/>
      <rect class="cls-2" x="229.98" y="229.9" width="65.17" height="26.27"/>
      <rect class="cls-2" x="128.77" y="167.57" width="65.15" height="26.27"/>
      <path class="cls-1" d="m84.18,48c0,6.66-5.38,12.03-12.04,12.03h0c-6.66,0-12.03-5.38-12.03-12.03V12.04c0-6.66,5.38-12.04,12.03-12.04h0c6.66,0,12.04,5.38,12.04,12.04v35.96Z"/>
      <path class="cls-1" d="m296.93,23.38h-20.13v24.62c0,14.48-11.78,26.27-26.25,26.27s-26.29-11.8-26.29-26.27v-24.62h-125.83v24.62c0,14.48-11.8,26.27-26.27,26.27s-26.27-11.8-26.27-26.27v-24.62h-20.11C11.56,23.38,0,34.94,0,49.14v208.79c0,14.2,11.56,25.76,25.76,25.76h271.17c14.2,0,25.76-11.56,25.76-25.76V49.14c0-14.2-11.56-25.76-25.76-25.76Zm-192.86,241.33H25.76c-3.74,0-6.78-3.03-6.78-6.78v-39.41h85.08v46.19Zm0-59.48H18.99v-49.04h85.08v49.04Zm0-62.34H18.99v-49.04h85.08v49.04Zm101.23,121.82h-87.94v-46.19h87.94v46.19Zm0-59.48h-87.94v-49.04h87.94v49.04Zm0-62.34h-87.94v-49.04h87.94v49.04Zm98.4,115.04c0,3.74-3.03,6.78-6.78,6.78h-78.33v-46.19h85.1v39.41Zm0-52.71h-85.1v-49.04h85.1v49.04Zm0-62.34h-85.1v-49.04h85.1v49.04Z"/>
      <path class="cls-1" d="m238.49,48c0,6.66,5.4,12.03,12.05,12.03h0c6.64,0,12.04-5.38,12.04-12.03V12.04c0-6.66-5.4-12.04-12.04-12.04h0c-6.66,0-12.05,5.38-12.05,12.04v35.96Z"/>
    </g>
  </g>
</svg>