<?xml version="1.0" encoding="UTF-8"?>
<svg id="Layer_2" data-name="Layer 2" xmlns="http://www.w3.org/2000/svg" viewBox="0 0 64 64">
  <defs>
    <style>
      .cls-1 {
        fill: none;
        stroke: #464646;
        stroke-linecap: round;
        stroke-linejoin: round;
        stroke-width: 2px;
      }
    </style>
  </defs>
  <g id="Capa_1" data-name="Capa 1">
    <g id="exercise_bike" data-name="exercise bike">
      <g>
        <line class="cls-1" x1="61" y1="63" x2="51" y2="63"/>
        <line class="cls-1" x1="56.45" y1="62.85" x2="52" y2="54"/>
      </g>
      <g>
        <line class="cls-1" x1="48" y1="10" x2="57" y2="7"/>
        <g>
          <line class="cls-1" x1="58" y1="12" x2="49" y2="37.75"/>
          <line class="cls-1" x1="51" y1="18" x2="45" y2="35.59"/>
        </g>
        <path class="cls-1" d="m63,1l-1.3,6.51c-.43,2.15-2,3.9-4.09,4.55l-12.6,3.94"/>
      </g>
      <path class="cls-1" d="m16,24c-8.52,0-15.39,7.11-14.98,15.73.38,8.07,7.33,14.27,15.41,14.27h31.34c4,0,7.24-3.24,7.24-7.24h0c0-2.39-1.18-4.62-3.15-5.97-7.32-5.01-25.61-16.79-35.85-16.79Z"/>
      <g>
        <line class="cls-1" x1="4" y1="63" x2="14" y2="63"/>
        <line class="cls-1" x1="8.9" y1="62.85" x2="13" y2="54"/>
      </g>
      <g>
        <line class="cls-1" x1="19" y1="13" x2="19" y2="24"/>
        <line class="cls-1" x1="14" y1="23" x2="14" y2="16"/>
        <path class="cls-1" d="m25,12H8l-1.29-2.58c-1.11-2.22.8-4.75,3.24-4.29l11.12,2.12c2.28.43,3.93,2.43,3.93,4.74h0Z"/>
      </g>
      <g>
        <line class="cls-1" x1="16" y1="39" x2="25" y2="46"/>
        <line class="cls-1" x1="21" y1="46" x2="28" y2="46"/>
        <path class="cls-1" d="m16,46c-3.87,0-7-3.13-7-7s3.13-7,7-7,7,3.13,7,7"/>
      </g>
    </g>
  </g>
</svg>