<?xml version="1.0" encoding="UTF-8"?>
<svg id="Layer_2" data-name="Layer 2" xmlns="http://www.w3.org/2000/svg" viewBox="0 0 87.08 57.67">
  <defs>
    <style>
      .cls-1 {
        fill: #25333f;
      }

      .cls-2 {
        fill: #47a2da;
      }
    </style>
  </defs>
  <g id="Layer_1-2" data-name="Layer 1">
    <g>
      <g>
        <path class="cls-1" d="m67.51,12.09c3.34,0,6.05-2.71,6.05-6.05s-2.71-6.05-6.05-6.05-6.05,2.71-6.05,6.05,2.71,6.05,6.05,6.05Z"/>
        <path class="cls-1" d="m87.05,16.02l-1.92-13.71c-.19-1.35-1.43-2.29-2.78-2.1-1.35.19-2.29,1.43-2.1,2.78l1.54,10.98c-.21.19-.54.25-.91.21-1.39-.24-2.44-.06-3.07.12-1.65.46-2.32,1.36-2.32,1.36h0s-1.63-1.36-3.26-1.45c0,0,0,0,0,0h0c-.09,0-.19,0-.28,0h-4.44s-4.44,0-4.44,0c-.09,0-.19,0-.28,0h0s0,0,0,0c-1.62.09-3.26,1.45-3.26,1.45h0s-.67-.9-2.32-1.36c-.63-.17-1.68-.36-3.07-.12-.37.04-.7-.02-.91-.21l1.54-10.98c.19-1.35-.75-2.59-2.1-2.78-1.35-.19-2.59.75-2.78,2.1l-1.92,13.71c-.09.68.1,1.36.53,1.89.2.18.45.4.75.64.58.65,1.16,1.3,1.74,1.94h0c1.19,1.31,3.22,2.04,3.75,2.23.74.27,2.29.8,3.9.19.29-.11.52-.23.67-.32,0,0,1.44,1.86,1.73,2.58.16.41.14.88.19,1.36.13,1.31.1,2.52-.02,3.59-.09.81-.15,1.63-.16,2.45,0,.05,0,.11,0,.16v22.06c0,1.59,1.29,2.88,2.88,2.88s2.88-1.29,2.88-2.88v-18.03h1.48v18.03c0,1.59,1.29,2.88,2.88,2.88s2.88-1.29,2.88-2.88v-22.06c0-.06,0-.11,0-.16-.02-.82-.07-1.63-.16-2.45-.12-1.07-.15-2.28-.02-3.59.05-.48.03-.95.19-1.36.29-.72,1.73-2.58,1.73-2.58.15.09.38.21.67.32,1.61.61,3.16.07,3.9-.19.53-.19,2.56-.92,3.75-2.23h0c.58-.65,1.16-1.3,1.74-1.94.3-.24.55-.46.75-.64.43-.53.62-1.22.53-1.89Z"/>
      </g>
      <path class="cls-2" d="m51.44,29.1l-8.09-7.79c-.16-.15-.36.04-.36.34v3.84h-6.99c-.28,0-.51.38-.51.84v6.07c0,.47.23.84.51.84h6.99v3.99c0,.31.2.5.36.34l8.09-7.79c.16-.15.16-.53,0-.69Z"/>
      <path class="cls-1" d="m19.25,12.09c3.34,0,6.05-2.71,6.05-6.05S22.59,0,19.25,0s-6.05,2.71-6.05,6.05,2.71,6.05,6.05,6.05Z"/>
      <path class="cls-1" d="m38.31,4.02l-.19-1.2c-.25-1.59-1.76-2.73-3.35-2.45-1.54.27-2.58,1.72-2.34,3.27l.21,1.32c.38,2.42-.22,4.9-1.73,6.83-.05.07-.1.13-.16.2-1.83,2.22-4.82,3.11-7.59,2.36-.12-.03-.25-.06-.39-.1-2.32-.53-4.73-.53-7.06,0-.14.03-.27.06-.39.1-2.78.75-5.76-.15-7.59-2.36-.05-.06-.11-.13-.16-.2-1.5-1.93-2.1-4.42-1.73-6.83l.21-1.32c.24-1.55-.8-3.01-2.34-3.27C2.13.09.62,1.23.37,2.82l-.19,1.2c-.62,3.99.37,8.1,2.85,11.29.98,1.26,2.13,2.33,3.41,3.18,1.67,1.11,2.52,3.11,2.21,5.09-.22,1.38-.33,2.94-.33,4.69,0,3.05.36,5.28,1,6.91.75,3.68,3.11,15.52,3.45,19.77.12,1.47,1.31,2.67,2.78,2.7,1.62.04,2.95-1.26,2.95-2.87v-15.1c.24,0,.49,0,.74,0s.49,0,.74,0v15.1c0,1.61,1.33,2.92,2.95,2.87,1.48-.04,2.67-1.23,2.78-2.7.34-4.25,2.7-16.08,3.45-19.77.64-1.64,1-3.87,1-6.91,0-1.75-.12-3.31-.33-4.69-.31-1.98.54-3.98,2.21-5.09,1.28-.86,2.44-1.93,3.41-3.18,2.48-3.19,3.47-7.3,2.85-11.29Z"/>
    </g>
  </g>
</svg>