<?xml version="1.0" encoding="UTF-8"?>
<svg id="Layer_2" data-name="Layer 2" xmlns="http://www.w3.org/2000/svg" viewBox="0 0 192 192">
  <defs>
    <style>
      .cls-1 {
        fill: #3a3a3c;
      }
    </style>
  </defs>
  <g id="Icons">
    <g>
      <path class="cls-1" d="m96,72c-13.23,0-24-10.77-24-24s10.77-24,24-24,24,10.77,24,24-10.77,24-24,24Zm0-40c-8.82,0-16,7.18-16,16s7.18,16,16,16,16-7.18,16-16-7.18-16-16-16Z"/>
      <path class="cls-1" d="m96,128h0c-1.3,0-2.51-.63-3.26-1.69l-35.47-50.03c-.17-.16-.32-.34-.46-.53-5.77-8.15-8.82-17.74-8.82-27.75C48,21.53,69.53,0,96,0s48,21.53,48,48c0,10.01-3.05,19.6-8.82,27.75,0,0,0,0,0,0l-35.92,50.56c-.75,1.06-1.97,1.68-3.26,1.68Zm-33.01-57.38c.16.16.3.33.43.51l32.58,45.96,32.31-45.48c.17-.35.4-.66.66-.94,4.6-6.69,7.02-14.51,7.02-22.67,0-22.06-17.94-40-40-40s-40,17.94-40,40c0,8.13,2.41,15.94,6.99,22.62Z"/>
      <path class="cls-1" d="m96,176c-2.21,0-4-1.79-4-4v-4c0-2.21,1.79-4,4-4s4,1.79,4,4v4c0,2.21-1.79,4-4,4Z"/>
      <path class="cls-1" d="m96,152c-2.21,0-4-1.79-4-4v-4c0-2.21,1.79-4,4-4s4,1.79,4,4v4c0,2.21-1.79,4-4,4Z"/>
      <path class="cls-1" d="m52,176c-2.21,0-4-1.79-4-4v-4c0-2.21,1.79-4,4-4s4,1.79,4,4v4c0,2.21-1.79,4-4,4Z"/>
      <path class="cls-1" d="m52,152c-2.21,0-4-1.79-4-4v-4c0-2.21,1.79-4,4-4s4,1.79,4,4v4c0,2.21-1.79,4-4,4Z"/>
      <path class="cls-1" d="m52,128c-2.21,0-4-1.79-4-4v-4c0-2.21,1.79-4,4-4s4,1.79,4,4v4c0,2.21-1.79,4-4,4Z"/>
      <path class="cls-1" d="m52,104c-2.21,0-4-1.79-4-4v-4c0-2.21,1.79-4,4-4s4,1.79,4,4v4c0,2.21-1.79,4-4,4Z"/>
      <path class="cls-1" d="m140,176c-2.21,0-4-1.79-4-4v-4c0-2.21,1.79-4,4-4s4,1.79,4,4v4c0,2.21-1.79,4-4,4Z"/>
      <path class="cls-1" d="m140,152c-2.21,0-4-1.79-4-4v-4c0-2.21,1.79-4,4-4s4,1.79,4,4v4c0,2.21-1.79,4-4,4Z"/>
      <path class="cls-1" d="m140,128c-2.21,0-4-1.79-4-4v-4c0-2.21,1.79-4,4-4s4,1.79,4,4v4c0,2.21-1.79,4-4,4Z"/>
      <path class="cls-1" d="m140,104c-2.21,0-4-1.79-4-4v-4c0-2.21,1.79-4,4-4s4,1.79,4,4v4c0,2.21-1.79,4-4,4Z"/>
      <path class="cls-1" d="m188,192c-.42,0-.85-.07-1.26-.21l-46.68-15.56-42.69,15.52c-.88.32-1.85.32-2.73,0l-42.69-15.52-46.68,15.56c-1.22.41-2.56.2-3.6-.55-1.04-.75-1.66-1.96-1.66-3.25v-120c0-1.72,1.1-3.25,2.74-3.8l32-10.64c2.09-.69,4.36.44,5.06,2.53.7,2.1-.44,4.36-2.53,5.06l-29.26,9.73v111.56l42.74-14.25c.86-.29,1.78-.27,2.63.04l42.63,15.5,42.63-15.5c.85-.31,1.78-.32,2.63-.04l42.74,14.25v-111.56l-29.26-9.73c-2.1-.7-3.23-2.96-2.53-5.06.7-2.1,2.96-3.23,5.06-2.53l32,10.64c1.63.54,2.74,2.07,2.74,3.8v120c0,1.29-.62,2.49-1.66,3.25-.69.5-1.51.75-2.34.75Z"/>
    </g>
  </g>
</svg>