<?xml version="1.0" encoding="UTF-8"?>
<svg id="Capa_1" data-name="Capa 1" xmlns="http://www.w3.org/2000/svg" viewBox="0 0 800 678.79">
  <defs>
    <style>
      .cls-1 {
        fill: #0af;
      }
    </style>
  </defs>
  <path class="cls-1" d="m0,64.65C0,28.96,28.96,0,64.65,0h670.71c35.68,0,64.65,28.96,64.65,64.65s-28.96,64.65-64.65,64.65H64.65C28.96,129.29,0,100.33,0,64.65Zm735.35,210.1H64.65c-35.68,0-64.65,28.96-64.65,64.65s28.96,64.65,64.65,64.65h670.71c35.68,0,64.65-28.96,64.65-64.65s-28.93-64.65-64.65-64.65Zm0,274.75H64.65c-35.68,0-64.65,28.96-64.65,64.65s28.96,64.65,64.65,64.65h670.71c35.68,0,64.65-28.96,64.65-64.65s-28.93-64.65-64.65-64.65Z"/>
</svg>