<?xml version="1.0" encoding="UTF-8"?>
<svg id="Layer_2" data-name="Layer 2" xmlns="http://www.w3.org/2000/svg" viewBox="0 0 254.11 322.69">
  <defs>
    <style>
      .cls-1 {
        fill: #374150;
      }

      .cls-2 {
        fill: #2878c8;
      }
    </style>
  </defs>
  <g id="Layer_1-2" data-name="Layer 1">
    <g>
      <path class="cls-1" d="m127.05,103.89c13.24,0,23.97-10.74,23.97-23.97s-10.73-23.96-23.97-23.96-23.95,10.72-23.95,23.96,10.71,23.97,23.95,23.97Z"/>
      <path class="cls-2" d="m238.49,309.75H15.62c-3.59,0-6.48,2.89-6.48,6.46s2.89,6.48,6.48,6.48h222.87c3.58,0,6.48-2.89,6.48-6.48s-2.89-6.46-6.48-6.46Z"/>
      <path class="cls-1" d="m240.24,5.49c-1.16,0-2.29.19-3.35.45-2.52-3.58-6.66-5.95-11.37-5.95-7.66,0-13.87,6.21-13.87,13.88v17.31h-9.53c-1.99-3.77-5.67-6.59-10.22-7.25-5.91-.89-11.5,2.22-14.2,7.25h-101.31c-2.68-5.03-8.27-8.13-14.18-7.25-4.55.66-8.23,3.48-10.24,7.25h-9.53V13.88c0-7.66-6.2-13.88-13.87-13.88-4.71,0-8.84,2.36-11.35,5.95-1.08-.27-2.19-.45-3.35-.45C6.22,5.49,0,11.7,0,19.36v36.6c0,7.66,6.22,13.87,13.88,13.87,1.16,0,2.27-.19,3.35-.45,2.5,3.58,6.64,5.95,11.35,5.95,7.66,0,13.87-6.21,13.87-13.88v-17.31h8.69l7.88,54.42c.47,3.21,2.05,6.15,4.45,8.32l29.78,31.88,2.89,49.69-6.68,97.02c-.89,7.6,4.57,14.48,12.19,15.36.53.06,1.08.1,1.62.1,6.93,0,12.94-5.2,13.75-12.27l10.04-72.85,10.04,72.85c.83,7.07,6.81,12.27,13.77,12.27.53,0,1.06-.04,1.62-.1,7.6-.89,13.06-7.76,12.17-15.36l-6.66-97.02,2.88-49.69,29.8-31.88c2.4-2.17,3.98-5.11,4.43-8.32l7.9-54.42h8.67v17.31c0,7.66,6.21,13.88,13.87,13.88,4.71,0,8.84-2.36,11.37-5.95,1.06.27,2.19.45,3.35.45,7.66,0,13.87-6.2,13.87-13.87V19.36c0-7.66-6.2-13.87-13.87-13.87Zm-71.87,84.12l-24.22,21.82h-34.17l-24.22-21.82-6.6-45.48h95.82l-6.6,45.48Z"/>
    </g>
  </g>
</svg>